PrintlineLatin.ufo
<glyph name="ampersand" format="2">
  <advance width="452"/>
  <unicode hex="0026"/>
  <outline>
    <contour>
      <point x="66" y="546.174" type="qcurve" smooth="yes"/>
      <point x="66" y="469.578"/>
      <point x="161.016" y="304.918"/>
      <point x="197.535" y="242" type="qcurve"/>
      <point x="338" y="0" type="line"/>
      <point x="422" y="0" type="line"/>
      <point x="220.303" y="366" type="line"/>
      <point x="152.308" y="489.384"/>
      <point x="152.089" y="560.441" type="qcurve" smooth="yes"/>
      <point x="152" y="591.691"/>
      <point x="176.753" y="636"/>
      <point x="202.485" y="636" type="qcurve" smooth="yes"/>
      <point x="229.376" y="636"/>
      <point x="250" y="591.691"/>
      <point x="250" y="554.337" type="qcurve" smooth="yes"/>
      <point x="250" y="493.25"/>
      <point x="189.798" y="404.277"/>
      <point x="140.65" y="362.52" type="qcurve" smooth="yes"/>
      <point x="89.2588" y="319.253"/>
      <point x="30" y="230.542"/>
      <point x="30" y="170" type="qcurve" smooth="yes"/>
      <point x="30" y="99.47"/>
      <point x="109.77" y="-15"/>
      <point x="182.487" y="-15" type="qcurve" smooth="yes"/>
      <point x="281.274" y="-15"/>
      <point x="401" y="202.355"/>
      <point x="401" y="341" type="qcurve"/>
      <point x="315" y="341" type="line"/>
      <point x="315" y="149.43"/>
      <point x="225.187" y="54"/>
      <point x="185.362" y="54" type="qcurve" smooth="yes"/>
      <point x="152.383" y="54"/>
      <point x="116" y="114.917"/>
      <point x="116" y="157.104" type="qcurve" smooth="yes"/>
      <point x="116" y="207.75"/>
      <point x="175.138" y="282.012"/>
      <point x="213.498" y="319.333" type="qcurve" smooth="yes"/>
      <point x="233.725" y="339.012"/>
      <point x="277.79" y="386.906"/>
      <point x="336" y="479.44"/>
      <point x="336" y="544.383" type="qcurve" smooth="yes"/>
      <point x="336" y="611.697"/>
      <point x="271.068" y="705"/>
      <point x="202.485" y="705" type="qcurve" smooth="yes"/>
      <point x="131.911" y="705"/>
      <point x="66" y="611.962"/>
    </contour>
  </outline>
</glyph>
<glyph name="quotesingle" format="2">
  <advance width="141"/>
  <unicode hex="0027"/>
  <outline>
    <contour>
      <point x="57" y="500" type="qcurve"/>
      <point x="79" y="500" type="line"/>
      <point x="83" y="509"/>
      <point x="94" y="538"/>
      <point x="104" y="572"/>
      <point x="111" y="610"/>
      <point x="111" y="627" type="qcurve" smooth="yes"/>
      <point x="111" y="655"/>
      <point x="93" y="700"/>
      <point x="71" y="700" type="qcurve" smooth="yes"/>
      <point x="48" y="700"/>
      <point x="30" y="651"/>
      <point x="30" y="620" type="qcurve" smooth="yes"/>
      <point x="30" y="588"/>
      <point x="49" y="517"/>
    </contour>
  </outline>
</glyph>
<glyph name="parenleft" format="2">
  <advance width="230"/>
  <unicode hex="0028"/>
  <outline>
    <contour>
      <point x="148" y="-50" type="qcurve"/>
      <point x="200" y="-50" type="line"/>
      <point x="165" y="14.9189"/>
      <point x="116" y="223.658"/>
      <point x="116" y="338.514" type="qcurve" smooth="yes"/>
      <point x="116" y="460.362"/>
      <point x="173" y="690.075"/>
      <point x="200" y="750" type="qcurve"/>
      <point x="148" y="750" type="line"/>
      <point x="84" y="639.139"/>
      <point x="30" y="442.385"/>
      <point x="30" y="338.514" type="qcurve" smooth="yes"/>
      <point x="30" y="236.642"/>
      <point x="84" y="56.8664"/>
    </contour>
  </outline>
</glyph>
<glyph name="parenright" format="2">
  <advance width="230"/>
  <unicode hex="0029"/>
  <outline>
    <contour>
      <point x="82" y="-50" type="qcurve"/>
      <point x="30" y="-50" type="line"/>
      <point x="65" y="14.9189"/>
      <point x="114" y="223.658"/>
      <point x="114" y="338.514" type="qcurve" smooth="yes"/>
      <point x="114" y="460.362"/>
      <point x="57" y="690.075"/>
      <point x="30" y="750" type="qcurve"/>
      <point x="82" y="750" type="line"/>
      <point x="146" y="639.139"/>
      <point x="200" y="442.385"/>
      <point x="200" y="338.514" type="qcurve" smooth="yes"/>
      <point x="200" y="236.642"/>
      <point x="146" y="56.8664"/>
    </contour>
  </outline>
</glyph>
<glyph name="period" format="2">
  <advance width="160"/>
  <unicode hex="002E"/>
  <outline>
    <contour>
      <point x="30" y="64" type="qcurve" smooth="yes"/>
      <point x="30" y="27"/>
      <point x="60.8385" y="0"/>
      <point x="80.463" y="0" type="qcurve" smooth="yes"/>
      <point x="100.087" y="0"/>
      <point x="130" y="27"/>
      <point x="130" y="64" type="qcurve" smooth="yes"/>
      <point x="130" y="101"/>
      <point x="100.087" y="127"/>
      <point x="80.463" y="127" type="qcurve" smooth="yes"/>
      <point x="60.8385" y="127"/>
      <point x="30" y="101"/>
    </contour>
  </outline>
</glyph>
<glyph name="two" format="2">
  <advance width="343"/>
  <unicode hex="0032"/>
  <outline>
    <contour>
      <point x="127" y="87" type="line"/>
      <point x="131.5" y="92.25"/>
      <point x="164.037" y="133.38"/>
      <point x="207.593" y="196.324"/>
      <point x="255.907" y="276.676"/>
      <point x="296.463" y="365.62"/>
      <point x="323" y="458.75"/>
      <point x="323" y="503" type="qcurve" smooth="yes"/>
      <point x="323" y="595"/>
      <point x="242" y="715"/>
      <point x="171" y="715" type="qcurve" smooth="yes"/>
      <point x="97" y="715"/>
      <point x="20" y="591"/>
      <point x="20" y="484" type="qcurve"/>
      <point x="102" y="484" type="line"/>
      <point x="102" y="639"/>
      <point x="171" y="639" type="qcurve" smooth="yes"/>
      <point x="203" y="639"/>
      <point x="241" y="566"/>
      <point x="241" y="515" type="qcurve" smooth="yes"/>
      <point x="241" y="467.75"/>
      <point x="211.731" y="371.343"/>
      <point x="166.787" y="280.731"/>
      <point x="112.963" y="199.769"/>
      <point x="63.8519" y="136.157"/>
      <point x="26.25" y="93.75"/>
      <point x="20" y="87" type="qcurve"/>
      <point x="20" y="5" type="line"/>
      <point x="323" y="5" type="line"/>
      <point x="323" y="87" type="line"/>
    </contour>
  </outline>
</glyph>
<glyph name="three" format="2">
  <advance width="361"/>
  <unicode hex="0033"/>
  <outline>
    <contour>
      <point x="148.612" y="399" type="line"/>
      <point x="148.612" y="333" type="line"/>
      <point x="156.493" y="333" type="line" smooth="yes"/>
      <point x="183.828" y="333"/>
      <point x="221.446" y="306.177"/>
      <point x="244.718" y="262.573"/>
      <point x="255" y="207.21"/>
      <point x="255" y="178.477" type="qcurve" smooth="yes"/>
      <point x="255" y="122.677"/>
      <point x="221.507" y="54"/>
      <point x="189.985" y="54" type="qcurve" smooth="yes"/>
      <point x="158.463" y="54"/>
      <point x="123" y="123.57"/>
      <point x="123" y="191" type="qcurve"/>
      <point x="40" y="191" type="line"/>
      <point x="40" y="96"/>
      <point x="121" y="-15"/>
      <point x="189.985" y="-15" type="qcurve" smooth="yes"/>
      <point x="262.167" y="-15"/>
      <point x="341" y="102"/>
      <point x="341" y="188.233" type="qcurve" smooth="yes"/>
      <point x="341" y="251.73"/>
      <point x="298.458" y="336.913"/>
      <point x="265.238" y="363.952" type="qcurve"/>
      <point x="298.458" y="388.674"/>
      <point x="341" y="467.632"/>
      <point x="341" y="526.807" type="qcurve" smooth="yes"/>
      <point x="341" y="609"/>
      <point x="256.024" y="715"/>
      <point x="188.015" y="715" type="qcurve" smooth="yes"/>
      <point x="114" y="715"/>
      <point x="40" y="591"/>
      <point x="40" y="485" type="qcurve"/>
      <point x="123" y="485" type="line"/>
      <point x="123" y="563.382"/>
      <point x="157.478" y="646"/>
      <point x="190.97" y="646" type="qcurve" smooth="yes"/>
      <point x="221.507" y="646"/>
      <point x="255" y="586.417"/>
      <point x="255" y="536.583" type="qcurve" smooth="yes"/>
      <point x="255" y="510.99"/>
      <point x="244.718" y="461.596"/>
      <point x="221.446" y="422.799"/>
      <point x="183.828" y="399"/>
      <point x="156.493" y="399" type="qcurve" smooth="yes"/>
    </contour>
  </outline>
</glyph>
<glyph name="four" format="2">
  <advance width="361"/>
  <unicode hex="0034"/>
  <outline>
    <contour>
      <point x="206" y="0" type="line"/>
      <point x="292" y="0" type="line"/>
      <point x="292" y="145" type="line"/>
      <point x="356" y="145" type="line"/>
      <point x="356" y="214" type="line"/>
      <point x="292" y="214" type="line"/>
      <point x="292" y="700" type="line"/>
      <point x="156" y="700" type="line"/>
      <point x="15" y="213.752" type="line"/>
      <point x="15" y="145" type="line"/>
      <point x="206" y="145" type="line"/>
    </contour>
    <contour>
      <point x="98" y="214" type="line"/>
      <point x="206" y="631" type="line"/>
      <point x="206" y="214" type="line"/>
    </contour>
  </outline>
</glyph>
<glyph name="five" format="2">
  <advance width="341"/>
  <unicode hex="0035"/>
  <outline>
    <contour>
      <point x="30" y="305" type="line"/>
      <point x="113" y="305" type="line"/>
      <point x="114.509" y="338.202"/>
      <point x="139.99" y="386"/>
      <point x="171.038" y="386" type="qcurve" smooth="yes"/>
      <point x="209.992" y="386"/>
      <point x="235" y="305.307"/>
      <point x="235" y="228.43" type="qcurve" smooth="yes"/>
      <point x="235" y="141"/>
      <point x="201.511" y="63"/>
      <point x="169.008" y="63" type="qcurve" smooth="yes"/>
      <point x="137.489" y="63"/>
      <point x="103" y="128"/>
      <point x="103" y="191" type="qcurve"/>
      <point x="20" y="191" type="line"/>
      <point x="20" y="96"/>
      <point x="100" y="-15"/>
      <point x="169.008" y="-15" type="qcurve" smooth="yes"/>
      <point x="246.415" y="-15"/>
      <point x="321" y="120"/>
      <point x="321" y="226.232" type="qcurve" smooth="yes"/>
      <point x="321" y="266.25"/>
      <point x="310.814" y="355.188"/>
      <point x="282.309" y="419.312"/>
      <point x="230.49" y="455"/>
      <point x="191.095" y="455" type="qcurve" smooth="yes"/>
      <point x="160.719" y="455"/>
      <point x="118.773" y="434.847"/>
      <point x="104" y="419" type="qcurve"/>
      <point x="103.895" y="614" type="line"/>
      <point x="300" y="614" type="line"/>
      <point x="300" y="700" type="line"/>
      <point x="30" y="700" type="line"/>
    </contour>
  </outline>
</glyph>
<glyph name="greater" format="2">
  <advance width="349"/>
  <unicode hex="003E"/>
  <outline>
    <contour>
      <point x="14" y="482" type="line"/>
      <point x="248" y="265" type="line"/>
      <point x="14" y="58" type="line"/>
      <point x="107" y="58" type="line"/>
      <point x="334" y="265" type="line"/>
      <point x="107" y="482" type="line"/>
    </contour>
  </outline>
</glyph>
<glyph name="at" format="2">
  <advance width="580"/>
  <unicode hex="0040"/>
  <outline>
    <contour>
      <point x="434" y="0" type="qcurve" smooth="yes"/>
      <point x="350" y="0" type="line"/>
      <point x="350" y="44" type="line"/>
      <point x="323.407" y="-6"/>
      <point x="272.252" y="-6" type="qcurve" smooth="yes"/>
      <point x="215.738" y="-6"/>
      <point x="141" y="111.122"/>
      <point x="141" y="243.295" type="qcurve" smooth="yes"/>
      <point x="141" y="377.841"/>
      <point x="219.833" y="506"/>
      <point x="277.171" y="506" type="qcurve" smooth="yes"/>
      <point x="335.211" y="506"/>
      <point x="350" y="437.986" type="qcurve"/>
      <point x="363" y="500.086" type="line"/>
      <point x="434" y="500.086" type="line"/>
      <point x="434" y="72.0162" type="line"/>
      <point x="442.25" y="72.0162"/>
      <point x="464" y="84.2993"/>
      <point x="483.5" y="123.405"/>
      <point x="497" y="196.602"/>
      <point x="497" y="261.792" type="qcurve" smooth="yes"/>
      <point x="497" y="348.48"/>
      <point x="473.804" y="473.559"/>
      <point x="426.129" y="550.884"/>
      <point x="353.332" y="585"/>
      <point x="303.732" y="585" type="qcurve" smooth="yes"/>
      <point x="253.457" y="585"/>
      <point x="171.91" y="549.787"/>
      <point x="114.273" y="465.882"/>
      <point x="83" y="326.546"/>
      <point x="83" y="233.681" type="qcurve" smooth="yes"/>
      <point x="83" y="166.02"/>
      <point x="100.836" y="55.8498"/>
      <point x="149.351" y="-31.2323"/>
      <point x="234.967" y="-85"/>
      <point x="302.748" y="-85" type="qcurve"/>
      <point x="302.748" y="-157" type="line"/>
      <point x="211.342" y="-157"/>
      <point x="93.8824" y="-96.9568"/>
      <point x="26.0546" y="3.80212"/>
      <point x="0" y="135.613"/>
      <point x="0" y="218.728" type="qcurve" smooth="yes"/>
      <point x="0" y="326.863"/>
      <point x="41.5234" y="497.24"/>
      <point x="119.664" y="606.106"/>
      <point x="231.967" y="657"/>
      <point x="302.748" y="657" type="qcurve" smooth="yes"/>
      <point x="368.842" y="657"/>
      <point x="472.007" y="612.298"/>
      <point x="542.93" y="518.089"/>
      <point x="580" y="371.97"/>
      <point x="580" y="276.062" type="qcurve" smooth="yes"/>
      <point x="580" y="194.973"/>
      <point x="552.656" y="91.5307"/>
      <point x="510.094" y="27.8632"/>
      <point x="458.375" y="0"/>
    </contour>
    <contour>
      <point x="285.041" y="437" type="qcurve" smooth="yes"/>
      <point x="259.463" y="437"/>
      <point x="227" y="360.795"/>
      <point x="227" y="250.712" type="qcurve" smooth="yes"/>
      <point x="227" y="140.2"/>
      <point x="260.447" y="66"/>
      <point x="288.976" y="66" type="qcurve" smooth="yes"/>
      <point x="310.372" y="66"/>
      <point x="348" y="112.876"/>
      <point x="348" y="172.286" type="qcurve" smooth="yes"/>
      <point x="348" y="325.7" type="line" smooth="yes"/>
      <point x="348" y="381.691"/>
      <point x="307.311" y="437"/>
    </contour>
  </outline>
</glyph>
<glyph name="B" format="2">
  <advance width="374"/>
  <unicode hex="0042"/>
  <outline>
    <contour>
      <point x="40" y="0" type="line"/>
      <point x="171" y="0" type="line"/>
      <point x="258" y="0"/>
      <point x="354" y="108.087"/>
      <point x="354" y="194.372" type="qcurve" smooth="yes"/>
      <point x="354" y="258.261"/>
      <point x="303" y="333.826"/>
      <point x="275" y="352" type="qcurve"/>
      <point x="334" y="427.47"/>
      <point x="334" y="494.554" type="qcurve" smooth="yes"/>
      <point x="334" y="588.892"/>
      <point x="257" y="700"/>
      <point x="158" y="700" type="qcurve"/>
      <point x="40" y="700" type="line"/>
    </contour>
    <contour>
      <point x="126" y="381" type="line"/>
      <point x="126" y="631" type="line"/>
      <point x="164" y="631" type="line"/>
      <point x="211" y="631"/>
      <point x="248" y="555.145"/>
      <point x="248" y="500.658" type="qcurve" smooth="yes"/>
      <point x="248" y="450.444"/>
      <point x="214" y="381"/>
      <point x="169" y="381" type="qcurve"/>
    </contour>
    <contour>
      <point x="126" y="69" type="line"/>
      <point x="126" y="312" type="line"/>
      <point x="163" y="312" type="line"/>
      <point x="210" y="312"/>
      <point x="268" y="251.954"/>
      <point x="268" y="187.216" type="qcurve" smooth="yes"/>
      <point x="268" y="129.046"/>
      <point x="221" y="69"/>
      <point x="179" y="69" type="qcurve"/>
    </contour>
  </outline>
</glyph>
<glyph name="C" format="2">
  <advance width="351"/>
  <unicode hex="0043"/>
  <anchor x="175.5" y="700" name="top"/>
  <anchor x="175.5" y="0" name="ced"/>
  <anchor x="175.5" y="-6" name="ogonek"/>
  <outline>
    <contour>
      <point x="242" y="237" type="line"/>
      <point x="241" y="153"/>
      <point x="206" y="54"/>
      <point x="179" y="54" type="qcurve" smooth="yes"/>
      <point x="140" y="54"/>
      <point x="106" y="235"/>
      <point x="106" y="353" type="qcurve" smooth="yes"/>
      <point x="106" y="503"/>
      <point x="134" y="652"/>
      <point x="175" y="652" type="qcurve" smooth="yes"/>
      <point x="208" y="652"/>
      <point x="245" y="539"/>
      <point x="245" y="430" type="qcurve"/>
      <point x="331" y="430" type="line"/>
      <point x="331" y="571"/>
      <point x="262" y="721"/>
      <point x="179" y="721" type="qcurve" smooth="yes"/>
      <point x="87" y="721"/>
      <point x="20" y="532"/>
      <point x="20" y="334" type="qcurve" smooth="yes"/>
      <point x="20" y="177"/>
      <point x="89" y="-15"/>
      <point x="176" y="-15" type="qcurve" smooth="yes"/>
      <point x="249" y="-15"/>
      <point x="328" y="119"/>
      <point x="328" y="237" type="qcurve"/>
    </contour>
  </outline>
</glyph>
<glyph name="K" format="2">
  <advance width="361"/>
  <unicode hex="004B"/>
  <outline>
    <contour>
      <point x="260" y="0" type="line"/>
      <point x="346" y="0" type="line"/>
      <point x="199" y="382" type="line"/>
      <point x="339" y="700" type="line"/>
      <point x="253" y="700" type="line"/>
      <point x="126" y="406" type="line"/>
      <point x="126" y="700" type="line"/>
      <point x="40" y="700" type="line"/>
      <point x="40" y="0" type="line"/>
      <point x="126" y="0" type="line"/>
      <point x="126" y="284" type="line"/>
      <point x="143" y="310" type="line"/>
    </contour>
  </outline>
</glyph>
<glyph name="R" format="2">
  <advance width="360"/>
  <unicode hex="0052"/>
  <anchor x="156.481" y="700" name="top"/>
  <outline>
    <contour>
      <point x="40" y="0" type="line"/>
      <point x="126" y="0" type="line"/>
      <point x="126" y="312" type="line"/>
      <point x="189" y="312"/>
      <point x="236" y="239.132"/>
      <point x="236" y="107.763" type="qcurve"/>
      <point x="236" y="46.1842"/>
      <point x="243.2" y="0"/>
      <point x="261.211" y="0" type="qcurve"/>
      <point x="340" y="0" type="line"/>
      <point x="340" y="30" type="line"/>
      <point x="330" y="41"/>
      <point x="322" y="99"/>
      <point x="322" y="172" type="qcurve"/>
      <point x="322" y="230"/>
      <point x="287.553" y="319"/>
      <point x="236" y="335" type="qcurve"/>
      <point x="288.566" y="350"/>
      <point x="331" y="439"/>
      <point x="331" y="508" type="qcurve" smooth="yes"/>
      <point x="331" y="597"/>
      <point x="258.171" y="700"/>
      <point x="184" y="700" type="qcurve"/>
      <point x="40" y="700" type="line"/>
    </contour>
    <contour>
      <point x="126" y="381" type="line"/>
      <point x="126" y="631" type="line"/>
      <point x="163" y="631" type="line" smooth="yes"/>
      <point x="198" y="631"/>
      <point x="245" y="573.829"/>
      <point x="245" y="506.969" type="qcurve" smooth="yes"/>
      <point x="245" y="446.891"/>
      <point x="205" y="381"/>
      <point x="163" y="381" type="qcurve" smooth="yes"/>
    </contour>
  </outline>
</glyph>
<glyph name="S" format="2">
  <advance width="372"/>
  <unicode hex="0053"/>
  <anchor x="186" y="700" name="top"/>
  <outline>
    <contour>
      <point x="193" y="-15" type="qcurve" smooth="yes"/>
      <point x="270" y="-15"/>
      <point x="352" y="91"/>
      <point x="352" y="171" type="qcurve" smooth="yes"/>
      <point x="352" y="213.75"/>
      <point x="329.94" y="277.77"/>
      <point x="294.311" y="327.784"/>
      <point x="249.356" y="367.527"/>
      <point x="226.461" y="386" type="qcurve" smooth="yes"/>
      <point x="205.668" y="402.777"/>
      <point x="166.888" y="437.097"/>
      <point x="136.987" y="477.458"/>
      <point x="119" y="526.5"/>
      <point x="119" y="558" type="qcurve" smooth="yes"/>
      <point x="119" y="601"/>
      <point x="153.737" y="646"/>
      <point x="180.534" y="646" type="qcurve" smooth="yes"/>
      <point x="211.301" y="646"/>
      <point x="251" y="588"/>
      <point x="251" y="484" type="qcurve"/>
      <point x="337" y="484" type="line"/>
      <point x="337" y="591"/>
      <point x="267" y="715"/>
      <point x="189" y="715" type="qcurve" smooth="yes"/>
      <point x="122" y="715"/>
      <point x="33" y="620"/>
      <point x="33" y="543" type="qcurve" smooth="yes"/>
      <point x="33" y="502.125"/>
      <point x="55.5689" y="438.276"/>
      <point x="91.8727" y="386.293"/>
      <point x="137.494" y="343.16"/>
      <point x="160.547" y="323" type="qcurve" smooth="yes"/>
      <point x="180.806" y="305.284"/>
      <point x="218.824" y="266.605"/>
      <point x="248.24" y="224.463"/>
      <point x="266" y="178.75"/>
      <point x="266" y="154" type="qcurve" smooth="yes"/>
      <point x="266" y="117"/>
      <point x="227.761" y="54"/>
      <point x="191.535" y="54" type="qcurve" smooth="yes"/>
      <point x="150.277" y="54"/>
      <point x="106" y="146"/>
      <point x="106" y="251" type="qcurve"/>
      <point x="20" y="251" type="line"/>
      <point x="20" y="122"/>
      <point x="108" y="-15"/>
    </contour>
  </outline>
</glyph>
<glyph name="U" format="2">
  <advance width="397"/>
  <unicode hex="0055"/>
  <anchor x="198.5" y="700" name="top"/>
  <anchor x="198.5" y="0.298" name="ced"/>
  <anchor x="227" y="0" name="ogonek"/>
  <outline>
    <contour>
      <point x="40" y="160" type="line"/>
      <point x="40" y="90"/>
      <point x="119" y="-21"/>
      <point x="193" y="-21" type="qcurve" smooth="yes"/>
      <point x="268" y="-21"/>
      <point x="357" y="90"/>
      <point x="357" y="160" type="qcurve"/>
      <point x="357" y="700" type="line"/>
      <point x="271" y="700" type="line"/>
      <point x="271" y="140" type="line"/>
      <point x="271" y="101"/>
      <point x="230" y="48"/>
      <point x="194" y="48" type="qcurve" smooth="yes"/>
      <point x="158" y="48"/>
      <point x="126" y="100"/>
      <point x="126" y="140" type="qcurve"/>
      <point x="126" y="700" type="line"/>
      <point x="40" y="700" type="line"/>
    </contour>
  </outline>
</glyph>
<glyph name="grave" format="2">
  <advance width="259"/>
  <unicode hex="0060"/>
  <outline>
    <contour>
      <point x="89.2213" y="750" type="line"/>
      <point x="151.399" y="750" type="line"/>
      <point x="104.834" y="890" type="line"/>
      <point x="19.1913" y="890" type="line"/>
    </contour>
  </outline>
</glyph>
<glyph name="a" format="2">
  <advance width="323"/>
  <unicode hex="0061"/>
  <anchor x="160" y="500" name="top"/>
  <outline>
    <contour>
      <point x="116" y="-5" type="qcurve" smooth="yes"/>
      <point x="144" y="-5"/>
      <point x="193" y="22"/>
      <point x="207" y="54" type="qcurve"/>
      <point x="207" y="0" type="line"/>
      <point x="293" y="0" type="line"/>
      <point x="293" y="337" type="line"/>
      <point x="293" y="429"/>
      <point x="227" y="515"/>
      <point x="164" y="515" type="qcurve" smooth="yes"/>
      <point x="101" y="515"/>
      <point x="27" y="431"/>
      <point x="27" y="330" type="qcurve"/>
      <point x="113" y="330" type="line"/>
      <point x="113" y="392"/>
      <point x="136.747" y="446"/>
      <point x="164.453" y="446" type="qcurve" smooth="yes"/>
      <point x="191.168" y="446"/>
      <point x="207" y="392"/>
      <point x="207" y="326" type="qcurve"/>
      <point x="102" y="282"/>
      <point x="15" y="184"/>
      <point x="15" y="122" type="qcurve" smooth="yes"/>
      <point x="15" y="75"/>
      <point x="70" y="-5"/>
    </contour>
    <contour>
      <point x="139" y="68" type="qcurve" smooth="yes"/>
      <point x="114" y="68"/>
      <point x="86" y="98"/>
      <point x="86" y="123" type="qcurve" smooth="yes"/>
      <point x="86" y="163"/>
      <point x="167" y="238"/>
      <point x="207" y="256" type="qcurve"/>
      <point x="207" y="156" type="line"/>
      <point x="207" y="110"/>
      <point x="167" y="68"/>
    </contour>
  </outline>
</glyph>
<glyph name="d" format="2">
  <advance width="340"/>
  <unicode hex="0064"/>
  <outline>
    <contour>
      <point x="310" y="0" type="line"/>
      <point x="226" y="0" type="line"/>
      <point x="226" y="38" type="line"/>
      <point x="193" y="-5"/>
      <point x="146" y="-5" type="qcurve" smooth="yes"/>
      <point x="91" y="-5"/>
      <point x="15" y="116"/>
      <point x="15" y="251" type="qcurve" smooth="yes"/>
      <point x="15" y="370"/>
      <point x="75" y="515"/>
      <point x="137" y="515" type="qcurve" smooth="yes"/>
      <point x="170" y="515"/>
      <point x="223" y="474"/>
      <point x="239" y="436" type="qcurve"/>
      <point x="239" y="700" type="line"/>
      <point x="310" y="700" type="line"/>
    </contour>
    <contour>
      <point x="166" y="56" type="qcurve" smooth="yes"/>
      <point x="193.166" y="56"/>
      <point x="224" y="120.914"/>
      <point x="224" y="176" type="qcurve" smooth="yes"/>
      <point x="224" y="300" type="line" smooth="yes"/>
      <point x="224" y="446"/>
      <point x="167" y="446" type="qcurve" smooth="yes"/>
      <point x="101" y="446"/>
      <point x="101" y="250" type="qcurve" smooth="yes"/>
      <point x="101" y="56"/>
    </contour>
  </outline>
</glyph>
<glyph name="e" format="2">
  <advance width="330"/>
  <unicode hex="0065"/>
  <anchor x="165" y="500" name="top"/>
  <anchor x="165" y="10" name="ced"/>
  <anchor x="180.208" y="10" name="ogonek"/>
  <outline>
    <contour>
      <point x="167.005" y="-5" type="qcurve" smooth="yes"/>
      <point x="223" y="-5"/>
      <point x="305.786" y="85.6532"/>
      <point x="312.952" y="159" type="qcurve"/>
      <point x="225" y="159" type="line"/>
      <point x="225" y="110.587"/>
      <point x="191" y="64"/>
      <point x="167" y="64" type="qcurve" smooth="yes"/>
      <point x="135" y="64"/>
      <point x="101" y="155.246"/>
      <point x="101" y="223" type="qcurve"/>
      <point x="315" y="223" type="line"/>
      <point x="315" y="301.059" type="line"/>
      <point x="315" y="392.654"/>
      <point x="236.167" y="515"/>
      <point x="168" y="515" type="qcurve" smooth="yes"/>
      <point x="97" y="515"/>
      <point x="15" y="376.207"/>
      <point x="15" y="258.411" type="qcurve" smooth="yes"/>
      <point x="15" y="138.024"/>
      <point x="98" y="-5"/>
    </contour>
    <contour>
      <point x="101" y="292" type="line"/>
      <point x="101" y="348.366"/>
      <point x="134" y="446"/>
      <point x="170" y="446" type="qcurve" smooth="yes"/>
      <point x="204" y="446"/>
      <point x="229" y="356.418"/>
      <point x="229" y="292" type="qcurve"/>
    </contour>
  </outline>
</glyph>
<glyph name="g" format="2">
  <advance width="311"/>
  <unicode hex="0067"/>
  <anchor x="170.5" y="500" name="top"/>
  <outline>
    <contour>
      <point x="15" y="317.502" type="qcurve" smooth="yes"/>
      <point x="15" y="232.828"/>
      <point x="51.3949" y="180.809" type="qcurve" smooth="yes"/>
      <point x="58" y="171"/>
      <point x="66" y="163" type="qcurve"/>
      <point x="36" y="141"/>
      <point x="36" y="103" type="qcurve" smooth="yes"/>
      <point x="36" y="52"/>
      <point x="91" y="22" type="qcurve"/>
      <point x="21" y="-4.92308"/>
      <point x="21" y="-97.0996" type="qcurve" smooth="yes"/>
      <point x="21" y="-172.914"/>
      <point x="110" y="-259"/>
      <point x="168" y="-259" type="qcurve" smooth="yes"/>
      <point x="236" y="-259"/>
      <point x="326" y="-138.741"/>
      <point x="326" y="-62.3553" type="qcurve" smooth="yes"/>
      <point x="326" y="6.99492"/>
      <point x="251" y="87"/>
      <point x="161" y="87" type="qcurve" smooth="yes"/>
      <point x="130" y="87"/>
      <point x="100" y="96"/>
      <point x="100" y="106" type="qcurve" smooth="yes"/>
      <point x="100" y="118"/>
      <point x="135" y="130"/>
      <point x="153" y="130" type="qcurve" smooth="yes"/>
      <point x="207" y="130"/>
      <point x="279" y="233.824"/>
      <point x="279" y="317.502" type="qcurve" smooth="yes"/>
      <point x="279" y="381.257"/>
      <point x="257" y="426.084" type="qcurve"/>
      <point x="280" y="437.042"/>
      <point x="310" y="437.042" type="qcurve"/>
      <point x="310" y="519" type="line"/>
      <point x="299" y="519"/>
      <point x="274" y="503.917"/>
      <point x="252" y="481.55"/>
      <point x="243" y="467.317" type="qcurve" smooth="yes"/>
      <point x="240" y="463.25"/>
      <point x="238" y="459.183" type="qcurve"/>
      <point x="202" y="509"/>
      <point x="146" y="509" type="qcurve" smooth="yes"/>
      <point x="87" y="509"/>
      <point x="15" y="403.172"/>
    </contour>
    <contour>
      <point x="101" y="317.502" type="qcurve" smooth="yes"/>
      <point x="101" y="368.307"/>
      <point x="126" y="448"/>
      <point x="147" y="448" type="qcurve" smooth="yes"/>
      <point x="168" y="448"/>
      <point x="193" y="369.303"/>
      <point x="193" y="318.498" type="qcurve" smooth="yes"/>
      <point x="193" y="267.693"/>
      <point x="168" y="188"/>
      <point x="147" y="188" type="qcurve" smooth="yes"/>
      <point x="126" y="188"/>
      <point x="101" y="266.697"/>
    </contour>
    <contour>
      <point x="141" y="9" type="qcurve"/>
      <point x="156" y="8" type="line"/>
      <point x="197" y="8"/>
      <point x="249" y="-37.2284"/>
      <point x="249" y="-87.4822" type="qcurve" smooth="yes"/>
      <point x="249" y="-129.695"/>
      <point x="209" y="-190"/>
      <point x="168" y="-190" type="qcurve" smooth="yes"/>
      <point x="125" y="-190"/>
      <point x="98" y="-127.685"/>
      <point x="98" y="-90.4975" type="qcurve" smooth="yes"/>
      <point x="98" y="-26.1726"/>
    </contour>
  </outline>
</glyph>
<glyph name="i" format="2">
  <advance width="161"/>
  <unicode hex="0069"/>
  <anchor x="79" y="0" name="ced"/>
  <anchor x="77" y="0" name="ogonek"/>
  <outline>
    <contour>
      <point x="38" y="0" type="line"/>
      <point x="124" y="0" type="line"/>
      <point x="124" y="500" type="line"/>
      <point x="38" y="500" type="line"/>
    </contour>
    <contour>
      <point x="81" y="574" type="qcurve" smooth="yes"/>
      <point x="101.183" y="574"/>
      <point x="130.541" y="600"/>
      <point x="130.541" y="637" type="qcurve" smooth="yes"/>
      <point x="130.541" y="674"/>
      <point x="101.183" y="700"/>
      <point x="81" y="700" type="qcurve" smooth="yes"/>
      <point x="60.8165" y="700"/>
      <point x="30.5413" y="674"/>
      <point x="30.5413" y="637" type="qcurve" smooth="yes"/>
      <point x="30.5413" y="600"/>
      <point x="60.8165" y="574"/>
    </contour>
  </outline>
</glyph>
<glyph name="l" format="2">
  <advance width="186"/>
  <unicode hex="006C"/>
  <anchor x="73" y="750" name="top"/>
  <outline>
    <contour>
      <point x="30" y="750" type="line"/>
      <point x="30" y="130.817" type="line"/>
      <point x="30" y="56.9144"/>
      <point x="79" y="-8"/>
      <point x="156" y="-8" type="qcurve"/>
      <point x="156" y="71" type="line"/>
      <point x="130" y="69.0029"/>
      <point x="116" y="97.9603"/>
      <point x="116" y="142.894" type="qcurve"/>
      <point x="116" y="750" type="line"/>
    </contour>
  </outline>
</glyph>
<glyph name="o" format="2">
  <advance width="331"/>
  <unicode hex="006F"/>
  <anchor x="165.5" y="500" name="top"/>
  <outline>
    <contour>
      <point x="165.985" y="-5" type="qcurve" smooth="yes"/>
      <point x="232.048" y="-5"/>
      <point x="316" y="138.245"/>
      <point x="316" y="255.981" type="qcurve" smooth="yes"/>
      <point x="316" y="372.736"/>
      <point x="231.024" y="515"/>
      <point x="165.985" y="515" type="qcurve" smooth="yes"/>
      <point x="99.9762" y="515"/>
      <point x="15" y="372.736"/>
      <point x="15" y="255.981" type="qcurve" smooth="yes"/>
      <point x="15" y="138.245"/>
      <point x="99.9762" y="-5"/>
    </contour>
    <contour>
      <point x="165.985" y="64" type="qcurve" smooth="yes"/>
      <point x="135.917" y="64"/>
      <point x="101" y="168.27"/>
      <point x="101" y="255.974" type="qcurve" smooth="yes"/>
      <point x="101" y="341.73"/>
      <point x="135.917" y="446"/>
      <point x="165.985" y="446" type="qcurve" smooth="yes"/>
      <point x="195.083" y="446"/>
      <point x="230" y="341.73"/>
      <point x="230" y="255.974" type="qcurve" smooth="yes"/>
      <point x="230" y="168.27"/>
      <point x="195.083" y="64"/>
    </contour>
  </outline>
</glyph>
<glyph name="p" format="2">
  <advance width="340"/>
  <unicode hex="0070"/>
  <outline>
    <contour>
      <point x="30" y="-250" type="line"/>
      <point x="116" y="-250" type="line"/>
      <point x="116" y="38" type="line"/>
      <point x="147" y="-5"/>
      <point x="194" y="-5" type="qcurve" smooth="yes"/>
      <point x="249" y="-5"/>
      <point x="325" y="116"/>
      <point x="325" y="251" type="qcurve" smooth="yes"/>
      <point x="325" y="370"/>
      <point x="265" y="515"/>
      <point x="203" y="515" type="qcurve" smooth="yes"/>
      <point x="170" y="515"/>
      <point x="117" y="474"/>
      <point x="102.69" y="436" type="qcurve"/>
      <point x="82.2143" y="500" type="line"/>
      <point x="30" y="500" type="line"/>
    </contour>
    <contour>
      <point x="174" y="56" type="qcurve" smooth="yes"/>
      <point x="146.834" y="56"/>
      <point x="116" y="121.249"/>
      <point x="116" y="176.619" type="qcurve" smooth="yes"/>
      <point x="116" y="301.258" type="line" smooth="yes"/>
      <point x="116" y="376.348"/>
      <point x="145.307" y="446"/>
      <point x="177" y="446" type="qcurve" smooth="yes"/>
      <point x="220" y="446"/>
      <point x="239" y="315.33"/>
      <point x="239" y="254.015" type="qcurve" smooth="yes"/>
      <point x="239" y="175.613"/>
      <point x="208" y="56"/>
    </contour>
  </outline>
</glyph>
<glyph name="v" format="2">
  <advance width="323"/>
  <unicode hex="0076"/>
  <outline>
    <contour>
      <point x="117" y="0" type="line"/>
      <point x="207" y="0" type="line"/>
      <point x="318" y="500" type="line"/>
      <point x="232" y="500" type="line"/>
      <point x="162" y="112" type="line"/>
      <point x="91" y="500" type="line"/>
      <point x="5" y="500" type="line"/>
    </contour>
  </outline>
</glyph>
<glyph name="x" format="2">
  <advance width="315"/>
  <unicode hex="0078"/>
  <outline>
    <contour>
      <point x="224" y="0" type="line"/>
      <point x="310" y="0" type="line"/>
      <point x="213" y="254" type="line"/>
      <point x="295" y="500" type="line"/>
      <point x="209" y="500" type="line"/>
      <point x="156" y="306" type="line"/>
      <point x="106" y="500" type="line"/>
      <point x="20" y="500" type="line"/>
      <point x="99" y="251" type="line"/>
      <point x="5" y="0" type="line"/>
      <point x="91" y="0" type="line"/>
      <point x="156" y="209" type="line"/>
    </contour>
  </outline>
</glyph>
<glyph name="asciitilde" format="2">
  <advance width="378"/>
  <unicode hex="007E"/>
  <outline>
    <contour>
      <point x="96" y="750" type="line"/>
      <point x="96" y="788.578"/>
      <point x="108.753" y="841"/>
      <point x="122.284" y="841" type="qcurve" smooth="yes"/>
      <point x="138.706" y="841"/>
      <point x="245.873" y="740"/>
      <point x="288.197" y="740" type="qcurve" smooth="yes"/>
      <point x="332.243" y="740"/>
      <point x="378" y="838.43"/>
      <point x="378" y="932" type="qcurve"/>
      <point x="286" y="932" type="line"/>
      <point x="286" y="872.75"/>
      <point x="275.176" y="830"/>
      <point x="262.376" y="830" type="qcurve" smooth="yes"/>
      <point x="245.859" y="830"/>
      <point x="136.072" y="931"/>
      <point x="97.0433" y="931" type="qcurve" smooth="yes"/>
      <point x="57.2689" y="931"/>
      <point x="10" y="834.696"/>
      <point x="10" y="750" type="qcurve"/>
    </contour>
  </outline>
</glyph>
<glyph name="sterling" format="2">
  <advance width="417"/>
  <unicode hex="00A3"/>
  <outline>
    <contour>
      <point x="93.0887" y="174.565" type="line"/>
      <point x="93.0995" y="131.024"/>
      <point x="74.4479" y="68.9989"/>
      <point x="57.5291" y="69" type="qcurve"/>
      <point x="40" y="69" type="line"/>
      <point x="40" y="0" type="line"/>
      <point x="381" y="0" type="line"/>
      <point x="381" y="69" type="line"/>
      <point x="149" y="69" type="line"/>
      <point x="169.456" y="69"/>
      <point x="179" y="155.549"/>
      <point x="179" y="176.663" type="qcurve"/>
      <point x="179" y="550" type="line"/>
      <point x="179" y="596.9"/>
      <point x="213.75" y="646"/>
      <point x="240.55" y="646" type="qcurve" smooth="yes"/>
      <point x="271.3" y="646"/>
      <point x="311" y="588"/>
      <point x="311" y="534" type="qcurve"/>
      <point x="397" y="534" type="line"/>
      <point x="397" y="591"/>
      <point x="327" y="715"/>
      <point x="250.106" y="715" type="qcurve" smooth="yes"/>
      <point x="182" y="715"/>
      <point x="92.9799" y="614.7"/>
      <point x="93" y="533.4" type="qcurve"/>
    </contour>
    <contour>
      <point x="50" y="335" type="line"/>
      <point x="297" y="335" type="line"/>
      <point x="297" y="414" type="line"/>
      <point x="50" y="414" type="line"/>
    </contour>
  </outline>
</glyph>
<glyph name="yen" format="2">
  <advance width="349"/>
  <unicode hex="00A5"/>
  <outline>
    <contour>
      <point x="0" y="318" type="line"/>
      <point x="349" y="318" type="line"/>
      <point x="349" y="404" type="line"/>
      <point x="0" y="404" type="line"/>
    </contour>
    <contour>
      <point x="0" y="144" type="line"/>
      <point x="349" y="144" type="line"/>
      <point x="349" y="230" type="line"/>
      <point x="0" y="230" type="line"/>
    </contour>
    <contour>
      <point x="131" y="0" type="line"/>
      <point x="217" y="0" type="line"/>
      <point x="217" y="334.046" type="line"/>
      <point x="331" y="700" type="line"/>
      <point x="245" y="700" type="line"/>
      <point x="175" y="404" type="line"/>
      <point x="104" y="700" type="line"/>
      <point x="18" y="700" type="line"/>
      <point x="131" y="334.046" type="line"/>
    </contour>
  </outline>
</glyph>
<glyph name="section" format="2">
  <advance width="323"/>
  <unicode hex="00A7"/>
  <outline>
    <contour>
      <point x="117" y="620.561" type="qcurve" smooth="yes"/>
      <point x="117" y="650.317"/>
      <point x="145" y="689"/>
      <point x="164" y="689" type="qcurve" smooth="yes"/>
      <point x="189" y="689"/>
      <point x="221" y="630.48"/>
      <point x="221" y="567" type="qcurve"/>
      <point x="301" y="567" type="line"/>
      <point x="301" y="650.317"/>
      <point x="230" y="750"/>
      <point x="167.702" y="750" type="qcurve" smooth="yes"/>
      <point x="113" y="750"/>
      <point x="37" y="676.106"/>
      <point x="37" y="617.585" type="qcurve" smooth="yes"/>
      <point x="37" y="566"/>
      <point x="96.0413" y="479.075"/>
      <point x="155.799" y="446.267" type="qcurve" smooth="yes"/>
      <point x="198.041" y="423.075"/>
      <point x="225" y="382"/>
      <point x="225" y="355.988" type="qcurve" smooth="yes"/>
      <point x="225" y="328"/>
      <point x="196" y="281"/>
      <point x="168.402" y="281" type="qcurve" smooth="yes"/>
      <point x="137" y="281"/>
      <point x="107" y="332"/>
      <point x="107" y="362" type="qcurve"/>
      <point x="27" y="362" type="line"/>
      <point x="27" y="288"/>
      <point x="112" y="220"/>
      <point x="169.889" y="220" type="qcurve" smooth="yes"/>
      <point x="232" y="220"/>
      <point x="308" y="304"/>
      <point x="308" y="360" type="qcurve" smooth="yes"/>
      <point x="308" y="409"/>
      <point x="254.985" y="489.975"/>
      <point x="192.199" y="528.164" type="qcurve" smooth="yes"/>
      <point x="157.985" y="548.975"/>
      <point x="117" y="586.837"/>
    </contour>
    <contour>
      <point x="107" y="364" type="qcurve" smooth="yes"/>
      <point x="107" y="394"/>
      <point x="138.731" y="432"/>
      <point x="163.088" y="432" type="qcurve" smooth="yes"/>
      <point x="189.303" y="432"/>
      <point x="225" y="396"/>
      <point x="225" y="356" type="qcurve"/>
      <point x="308" y="360" type="line"/>
      <point x="308" y="421.161"/>
      <point x="232.462" y="493"/>
      <point x="169.542" y="493" type="qcurve" smooth="yes"/>
      <point x="108.581" y="493"/>
      <point x="27" y="420"/>
      <point x="27" y="361" type="qcurve" smooth="yes"/>
      <point x="27" y="309"/>
      <point x="86.0413" y="222.075"/>
      <point x="144.606" y="189.922" type="qcurve" smooth="yes"/>
      <point x="188.041" y="166.075"/>
      <point x="215" y="124"/>
      <point x="215" y="99" type="qcurve" smooth="yes"/>
      <point x="215" y="70"/>
      <point x="185" y="23"/>
      <point x="160" y="23" type="qcurve" smooth="yes"/>
      <point x="126" y="23"/>
      <point x="95" y="107"/>
      <point x="95" y="156" type="qcurve"/>
      <point x="15" y="156" type="line"/>
      <point x="15" y="55"/>
      <point x="100" y="-38"/>
      <point x="161" y="-38" type="qcurve" smooth="yes"/>
      <point x="221" y="-38"/>
      <point x="298" y="46"/>
      <point x="298" y="102" type="qcurve" smooth="yes"/>
      <point x="298" y="151"/>
      <point x="244.985" y="232.975"/>
      <point x="182.051" y="271.254" type="qcurve" smooth="yes"/>
      <point x="147.985" y="291.975"/>
      <point x="107" y="330"/>
    </contour>
  </outline>
</glyph>
<glyph name="dieresis" format="2">
  <advance width="286"/>
  <unicode hex="00A8"/>
  <outline>
    <contour>
      <point x="0" y="814.224" type="qcurve" smooth="yes"/>
      <point x="0" y="750.224"/>
      <point x="50.463" y="750.224" type="qcurve" smooth="yes"/>
      <point x="100" y="750.224"/>
      <point x="100" y="814.224" type="qcurve" smooth="yes"/>
      <point x="100" y="877.224"/>
      <point x="50.463" y="877.224" type="qcurve" smooth="yes"/>
      <point x="0" y="877.224"/>
    </contour>
    <contour>
      <point x="186" y="814.224" type="qcurve" smooth="yes"/>
      <point x="186" y="750.224"/>
      <point x="236.463" y="750.224" type="qcurve" smooth="yes"/>
      <point x="286" y="750.224"/>
      <point x="286" y="814.224" type="qcurve" smooth="yes"/>
      <point x="286" y="877.224"/>
      <point x="236.463" y="877.224" type="qcurve" smooth="yes"/>
      <point x="186" y="877.224"/>
    </contour>
  </outline>
</glyph>
<glyph name="copyright" format="2">
  <advance width="796"/>
  <unicode hex="00A9"/>
  <anchor x="396" y="700" name="top"/>
  <outline>
    <contour>
      <point x="462" y="250" type="line"/>
      <point x="461" y="178.459"/>
      <point x="426" y="94"/>
      <point x="399" y="94" type="qcurve" smooth="yes"/>
      <point x="360" y="94"/>
      <point x="326" y="249.006"/>
      <point x="326" y="350" type="qcurve" smooth="yes"/>
      <point x="326" y="478.34"/>
      <point x="354" y="605"/>
      <point x="395" y="605" type="qcurve" smooth="yes"/>
      <point x="428" y="605"/>
      <point x="465" y="509.016"/>
      <point x="465" y="416" type="qcurve"/>
      <point x="551" y="416" type="line"/>
      <point x="551" y="535.733"/>
      <point x="482" y="666"/>
      <point x="399" y="666" type="qcurve" smooth="yes"/>
      <point x="307" y="666"/>
      <point x="240" y="502.089"/>
      <point x="240" y="333" type="qcurve" smooth="yes"/>
      <point x="240" y="198.331"/>
      <point x="309" y="33"/>
      <point x="396" y="33" type="qcurve" smooth="yes"/>
      <point x="469" y="33"/>
      <point x="548" y="149.643"/>
      <point x="548" y="250" type="qcurve"/>
    </contour>
    <contour>
      <point x="37" y="350" type="curve" smooth="yes"/>
      <point x="37" y="105.924"/>
      <point x="152" y="-58"/>
      <point x="397" y="-58" type="curve" smooth="yes"/>
      <point x="642" y="-58"/>
      <point x="757" y="105.924"/>
      <point x="757" y="350" type="curve" smooth="yes"/>
      <point x="757" y="593.126"/>
      <point x="642" y="758"/>
      <point x="397" y="758" type="curve" smooth="yes"/>
      <point x="152" y="758"/>
      <point x="37" y="593.126"/>
    </contour>
    <contour>
      <point x="103" y="350" type="curve" smooth="yes"/>
      <point x="103" y="549.586"/>
      <point x="196" y="694"/>
      <point x="397" y="694" type="curve" smooth="yes"/>
      <point x="598" y="694"/>
      <point x="691" y="549.586"/>
      <point x="691" y="350" type="curve" smooth="yes"/>
      <point x="691" y="149.643"/>
      <point x="598" y="6"/>
      <point x="397" y="6" type="curve" smooth="yes"/>
      <point x="196" y="6"/>
      <point x="103" y="149.643"/>
    </contour>
  </outline>
</glyph>
<glyph name="ordfeminine" format="2">
  <advance width="338"/>
  <unicode hex="00AA"/>
  <outline>
    <contour>
      <point x="308" y="700.086" type="line"/>
      <point x="308" y="280" type="line"/>
      <point x="222" y="280" type="line"/>
      <point x="222" y="324" type="line"/>
      <point x="187.047" y="274"/>
      <point x="134" y="274" type="qcurve" smooth="yes"/>
      <point x="79.3789" y="274"/>
      <point x="15" y="372.821"/>
      <point x="15" y="486.763" type="qcurve" smooth="yes"/>
      <point x="15" y="597.865"/>
      <point x="73.6323" y="706"/>
      <point x="131.692" y="706" type="qcurve" smooth="yes"/>
      <point x="189.01" y="706"/>
      <point x="222" y="658" type="qcurve"/>
      <point x="235.31" y="700.086" type="line"/>
    </contour>
    <contour>
      <point x="159.041" y="637" type="qcurve" smooth="yes"/>
      <point x="133.463" y="637"/>
      <point x="101" y="577.227"/>
      <point x="101" y="490.882" type="qcurve" smooth="yes"/>
      <point x="101" y="404.2"/>
      <point x="134.447" y="346"/>
      <point x="162.976" y="346" type="qcurve" smooth="yes"/>
      <point x="184.372" y="346"/>
      <point x="222" y="382.768"/>
      <point x="222" y="429.368" type="qcurve" smooth="yes"/>
      <point x="222" y="549.7" type="line" smooth="yes"/>
      <point x="222" y="593.618"/>
      <point x="181.311" y="637"/>
    </contour>
  </outline>
</glyph>
<glyph name="paragraph" format="2">
  <advance width="384"/>
  <unicode hex="00B6"/>
  <outline>
    <contour>
      <point x="364" y="0" type="line"/>
      <point x="278" y="0" type="line"/>
      <point x="278" y="312" type="line"/>
      <point x="208" y="312" type="line" smooth="yes"/>
      <point x="126" y="312"/>
      <point x="40" y="425.37"/>
      <point x="40" y="507.466" type="qcurve" smooth="yes"/>
      <point x="40" y="582.72"/>
      <point x="110" y="700"/>
      <point x="196" y="700" type="qcurve" smooth="yes"/>
      <point x="364" y="700" type="line"/>
    </contour>
  </outline>
</glyph>
<glyph name="cedilla" format="2">
  <advance width="351"/>
  <unicode hex="00B8"/>
  <outline>
    <contour>
      <point x="112" y="-94" type="line"/>
      <point x="165" y="-94" type="line"/>
      <point x="207" y="-94"/>
      <point x="207" y="-138" type="qcurve" smooth="yes"/>
      <point x="207" y="-201"/>
      <point x="112" y="-181" type="qcurve"/>
      <point x="112" y="-250" type="line"/>
      <point x="293" y="-270"/>
      <point x="293" y="-141" type="qcurve" smooth="yes"/>
      <point x="293" y="-45"/>
      <point x="198" y="-25" type="qcurve"/>
      <point x="198" y="0" type="line"/>
      <point x="112" y="0" type="line"/>
    </contour>
  </outline>
</glyph>
<glyph name="AE" format="2">
  <advance width="503"/>
  <unicode hex="00C6"/>
  <outline>
    <contour>
      <point x="15.3" y="0" type="line"/>
      <point x="100.85" y="0" type="line"/>
      <point x="149.307" y="212" type="line"/>
      <point x="241" y="212" type="line"/>
      <point x="241" y="0" type="line"/>
      <point x="498" y="0" type="line"/>
      <point x="498" y="69" type="line"/>
      <point x="327" y="69" type="line"/>
      <point x="327" y="312" type="line"/>
      <point x="451" y="312" type="line"/>
      <point x="451" y="381" type="line"/>
      <point x="327" y="381" type="line"/>
      <point x="327" y="631" type="line"/>
      <point x="491" y="631" type="line"/>
      <point x="491" y="700" type="line"/>
      <point x="175.3" y="700" type="line"/>
    </contour>
    <contour>
      <point x="165.079" y="281" type="line"/>
      <point x="241" y="613.156" type="line"/>
      <point x="241" y="281" type="line"/>
    </contour>
  </outline>
</glyph>
<glyph name="multiply" format="2">
  <advance width="349"/>
  <unicode hex="00D7"/>
  <outline>
    <contour>
      <point x="262" y="124" type="line"/>
      <point x="324" y="186" type="line"/>
      <point x="233" y="278" type="line"/>
      <point x="324" y="369" type="line"/>
      <point x="265" y="429" type="line"/>
      <point x="173" y="337" type="line"/>
      <point x="83" y="429" type="line"/>
      <point x="21" y="367" type="line"/>
      <point x="112" y="275" type="line"/>
      <point x="22" y="183" type="line"/>
      <point x="81" y="124" type="line"/>
      <point x="171" y="216" type="line"/>
    </contour>
  </outline>
</glyph>
<glyph name="germandbls" format="2">
  <advance width="421"/>
  <unicode hex="00DF"/>
  <outline>
    <contour>
      <point x="188.6" y="0" type="line"/>
      <point x="304.85" y="0"/>
      <point x="401" y="112.35"/>
      <point x="401" y="195.72" type="qcurve" smooth="yes"/>
      <point x="401" y="256.15"/>
      <point x="347.25" y="338"/>
      <point x="305.25" y="363.95" type="qcurve"/>
      <point x="338.45" y="388.65"/>
      <point x="381" y="467.65"/>
      <point x="381" y="522.7" type="qcurve" smooth="yes"/>
      <point x="381" y="609"/>
      <point x="284.741" y="715"/>
      <point x="207.681" y="715" type="qcurve" smooth="yes"/>
      <point x="123.818" y="715"/>
      <point x="40" y="591"/>
      <point x="40" y="485" type="qcurve"/>
      <point x="40" y="0" type="line"/>
      <point x="123" y="0" type="line"/>
      <point x="123" y="485" type="line"/>
      <point x="123" y="563.4"/>
      <point x="167.907" y="646"/>
      <point x="212.57" y="646" type="qcurve" smooth="yes"/>
      <point x="251.351" y="646"/>
      <point x="295" y="586.4"/>
      <point x="295" y="533.304" type="qcurve" smooth="yes"/>
      <point x="295" y="478.789"/>
      <point x="247.188" y="399"/>
      <point x="188.6" y="399" type="qcurve"/>
      <point x="188.6" y="333" type="line"/>
      <point x="258.124" y="333"/>
      <point x="315" y="248.149"/>
      <point x="315" y="190.229" type="qcurve" smooth="yes"/>
      <point x="315" y="134"/>
      <point x="263.75" y="69"/>
      <point x="188.6" y="69" type="qcurve"/>
    </contour>
  </outline>
</glyph>
<glyph name="eth" format="2">
  <advance width="337"/>
  <unicode hex="00F0"/>
  <outline>
    <contour>
      <point x="130.747" y="655.268" type="line"/>
      <point x="239" y="524.064"/>
      <point x="242" y="394.397" type="qcurve"/>
      <point x="215" y="451"/>
      <point x="157.214" y="451" type="qcurve" smooth="yes"/>
      <point x="101" y="451"/>
      <point x="15" y="337"/>
      <point x="15" y="230" type="qcurve" smooth="yes"/>
      <point x="15" y="127"/>
      <point x="96.4389" y="-15"/>
      <point x="174.127" y="-15" type="qcurve" smooth="yes"/>
      <point x="263.312" y="-15"/>
      <point x="328" y="160"/>
      <point x="328" y="322" type="qcurve" smooth="yes"/>
      <point x="328" y="524.064"/>
      <point x="200" y="699.961" type="qcurve"/>
    </contour>
    <contour>
      <point x="168.955" y="64" type="qcurve" smooth="yes"/>
      <point x="134.455" y="64"/>
      <point x="101" y="162.404"/>
      <point x="101" y="227.661" type="qcurve" smooth="yes"/>
      <point x="101" y="294.99"/>
      <point x="139.682" y="382"/>
      <point x="172.091" y="382" type="qcurve" smooth="yes"/>
      <point x="203.455" y="382"/>
      <point x="239" y="294.99"/>
      <point x="239" y="227.661" type="qcurve" smooth="yes"/>
      <point x="239" y="161.368"/>
      <point x="205.545" y="64"/>
    </contour>
    <contour>
      <point x="102" y="558" type="line"/>
      <point x="134" y="489.509" type="line"/>
      <point x="332" y="581" type="line"/>
      <point x="301" y="649" type="line"/>
    </contour>
  </outline>
</glyph>
<glyph name="thorn" format="2">
  <advance width="341"/>
  <unicode hex="00FE"/>
  <outline>
    <component base="b" xOffset="0.5"/>
    <contour>
      <point x="30.5" y="-259" type="line"/>
      <point x="116.5" y="-259" type="line"/>
      <point x="116.5" y="750" type="line"/>
      <point x="30.5" y="750" type="line"/>
    </contour>
  </outline>
</glyph>
<glyph name="lslash" format="2">
  <advance width="401"/>
  <unicode hex="0142"/>
  <anchor x="195" y="750" name="top"/>
  <outline>
    <component base="l" xOffset="122"/>
    <contour>
      <point x="70.4845" y="258.117" type="line"/>
      <point x="370.995" y="431.617" type="line"/>
      <point x="331.495" y="500.033" type="line"/>
      <point x="30.9845" y="326.533" type="line"/>
    </contour>
  </outline>
</glyph>
<glyph name="circumflex" format="2">
  <advance width="316"/>
  <unicode hex="02C6"/>
  <outline>
    <contour>
      <point x="199.654" y="884" type="line"/>
      <point x="285" y="750" type="line"/>
      <point x="199" y="750" type="line"/>
      <point x="158" y="821" type="line"/>
      <point x="117" y="750" type="line"/>
      <point x="31" y="750" type="line"/>
      <point x="116.346" y="884" type="line"/>
    </contour>
  </outline>
</glyph>
<glyph name="caron" format="2">
  <advance width="316"/>
  <unicode hex="02C7"/>
  <outline>
    <contour>
      <point x="199.654" y="750" type="line"/>
      <point x="275" y="884" type="line"/>
      <point x="189" y="884" type="line"/>
      <point x="158" y="813" type="line"/>
      <point x="127" y="884" type="line"/>
      <point x="41" y="884" type="line"/>
      <point x="116.346" y="750" type="line"/>
    </contour>
  </outline>
</glyph>
<glyph name="breve" format="2">
  <advance width="332"/>
  <unicode hex="02D8"/>
  <outline>
    <contour>
      <point x="165.145" y="750" type="qcurve" smooth="yes"/>
      <point x="226.158" y="750"/>
      <point x="302" y="825.729"/>
      <point x="302" y="904" type="qcurve"/>
      <point x="216" y="904" type="line"/>
      <point x="216" y="866.545"/>
      <point x="195.759" y="819"/>
      <point x="165.145" y="819" type="qcurve" smooth="yes"/>
      <point x="133.242" y="819"/>
      <point x="116" y="866.545"/>
      <point x="116" y="904" type="qcurve"/>
      <point x="30" y="904" type="line"/>
      <point x="30" y="825.729"/>
      <point x="105.422" y="750"/>
    </contour>
  </outline>
</glyph>
<glyph name="dotaccent" format="2">
  <advance width="100"/>
  <unicode hex="02D9"/>
  <outline>
    <contour>
      <point x="0" y="819.039" type="qcurve" smooth="yes"/>
      <point x="0" y="750"/>
      <point x="50" y="750" type="qcurve" smooth="yes"/>
      <point x="100" y="750"/>
      <point x="100" y="819.039" type="qcurve" smooth="yes"/>
      <point x="100" y="887"/>
      <point x="50" y="887" type="qcurve" smooth="yes"/>
      <point x="0" y="887"/>
    </contour>
  </outline>
</glyph>
<glyph name="ring" format="2">
  <advance width="150"/>
  <unicode hex="02DA"/>
  <outline>
    <contour>
      <point x="15" y="820.551" type="qcurve" smooth="yes"/>
      <point x="15" y="750"/>
      <point x="77.1091" y="750" type="qcurve" smooth="yes"/>
      <point x="137" y="750"/>
      <point x="137" y="820.551" type="qcurve" smooth="yes"/>
      <point x="137" y="890"/>
      <point x="77.1091" y="890" type="qcurve" smooth="yes"/>
      <point x="15" y="890"/>
    </contour>
    <contour>
      <point x="53.869" y="820.5" type="qcurve" smooth="yes"/>
      <point x="53.869" y="849.893"/>
      <point x="76" y="849.893" type="qcurve" smooth="yes"/>
      <point x="98.131" y="849.893"/>
      <point x="98.131" y="820.5" type="qcurve" smooth="yes"/>
      <point x="98.131" y="791.107"/>
      <point x="76" y="791.107" type="qcurve" smooth="yes"/>
      <point x="53.869" y="791.107"/>
    </contour>
  </outline>
</glyph>
<glyph name="ogonek" format="2">
  <advance width="150"/>
  <unicode hex="02DB"/>
  <outline>
    <contour>
      <point x="136" y="0" type="line"/>
      <point x="106.624" y="-42.0921" type="line"/>
      <point x="60" y="-108.898"/>
      <point x="60" y="-143.85" type="qcurve" smooth="yes"/>
      <point x="60" y="-190"/>
      <point x="132" y="-190" type="qcurve"/>
      <point x="132" y="-259" type="line"/>
      <point x="-26" y="-259"/>
      <point x="-26" y="-154.534" type="qcurve" smooth="yes"/>
      <point x="-26" y="-98.6761"/>
      <point x="22.6291" y="-35.5375" type="qcurve"/>
      <point x="50" y="0" type="line"/>
    </contour>
  </outline>
</glyph>
<glyph name="quotedblright" format="2">
  <advance width="269"/>
  <unicode hex="201D"/>
  <outline>
    <contour>
      <point x="30" y="646" type="qcurve" smooth="yes"/>
      <point x="30" y="614"/>
      <point x="66" y="585"/>
      <point x="78" y="585" type="qcurve"/>
      <point x="54" y="500" type="line"/>
      <point x="88" y="500" type="line"/>
      <point x="103" y="528"/>
      <point x="130" y="614"/>
      <point x="130" y="642" type="qcurve" smooth="yes"/>
      <point x="130" y="668"/>
      <point x="104" y="700"/>
      <point x="79" y="700" type="qcurve" smooth="yes"/>
      <point x="59" y="700"/>
      <point x="30" y="676"/>
    </contour>
    <contour>
      <point x="139" y="646" type="qcurve" smooth="yes"/>
      <point x="139" y="614"/>
      <point x="175" y="585"/>
      <point x="187" y="585" type="qcurve"/>
      <point x="163" y="500" type="line"/>
      <point x="197" y="500" type="line"/>
      <point x="212" y="528"/>
      <point x="239" y="614"/>
      <point x="239" y="642" type="qcurve" smooth="yes"/>
      <point x="239" y="668"/>
      <point x="213" y="700"/>
      <point x="188" y="700" type="qcurve" smooth="yes"/>
      <point x="168" y="700"/>
      <point x="139" y="676"/>
    </contour>
  </outline>
</glyph>
<glyph name="bullet" format="2">
  <advance width="168"/>
  <unicode hex="2022"/>
  <outline>
    <contour>
      <point x="30" y="339" type="qcurve" smooth="yes"/>
      <point x="30" y="307"/>
      <point x="49" y="243"/>
      <point x="84" y="243" type="qcurve" smooth="yes"/>
      <point x="119" y="243"/>
      <point x="138" y="307"/>
      <point x="138" y="339" type="qcurve" smooth="yes"/>
      <point x="138" y="371"/>
      <point x="119" y="435"/>
      <point x="84" y="435" type="qcurve" smooth="yes"/>
      <point x="49" y="435"/>
      <point x="30" y="371"/>
    </contour>
  </outline>
</glyph>
<glyph name="trademark" format="2">
  <advance width="604"/>
  <unicode hex="2122"/>
  <anchor x="113" y="700" name="top"/>
  <anchor x="113" y="0.4974" name="ced"/>
  <outline>
    <contour>
      <point x="70" y="300" type="line"/>
      <point x="156" y="300" type="line"/>
      <point x="156" y="681" type="line"/>
      <point x="226" y="681" type="line"/>
      <point x="226" y="750" type="line"/>
      <point x="0" y="750" type="line"/>
      <point x="0" y="681" type="line"/>
      <point x="70" y="681" type="line"/>
    </contour>
    <contour>
      <point x="517" y="300.35" type="line"/>
      <point x="603.4" y="300.35" type="line"/>
      <point x="603.4" y="750" type="line"/>
      <point x="471" y="750" type="line"/>
      <point x="431" y="369" type="line"/>
      <point x="390" y="750" type="line"/>
      <point x="261.45" y="750" type="line"/>
      <point x="261.45" y="300.35" type="line"/>
      <point x="347.8" y="300.35" type="line"/>
      <point x="347.8" y="582" type="line"/>
      <point x="370" y="300" type="line"/>
      <point x="492" y="300" type="line"/>
      <point x="517" y="602.632" type="line"/>
    </contour>
  </outline>
</glyph>
<glyph name="caroncomb.alt" format="2">
  <anchor x="-37" y="700.002" name="_top"/>
  <outline>
    <contour>
      <point x="0" y="646" type="qcurve" smooth="yes"/>
      <point x="0" y="614"/>
      <point x="36" y="585"/>
      <point x="48" y="585" type="qcurve"/>
      <point x="24" y="500" type="line"/>
      <point x="58" y="500" type="line"/>
      <point x="73" y="528"/>
      <point x="100" y="614"/>
      <point x="100" y="642" type="qcurve" smooth="yes"/>
      <point x="100" y="668"/>
      <point x="74" y="700"/>
      <point x="49" y="700" type="qcurve" smooth="yes"/>
      <point x="29" y="700"/>
      <point x="0" y="676"/>
    </contour>
  </outline>
</glyph>
